
<svg version="1.1" id="Layer_1" xmlns="http://www.w3.org/2000/svg" xmlns:xlink="http://www.w3.org/1999/xlink" x="0px" y="0px"
	 width="200px" height="200px" viewBox="0 0 200 200" enable-background="new 0 0 200 200" xml:space="preserve">
<g>
	<path fill="#1F215E" d="M102.637,188.063c-1.24,1.24-2.791,1.859-4.496,1.859c-1.706,0-3.256-0.619-4.496-1.859
		c-2.481-2.48-2.481-6.512,0-8.992L172.713,100L93.644,20.93c-2.481-2.48-2.481-6.512,0-8.992c2.48-2.48,6.512-2.48,8.993,0
		l83.564,83.566c2.48,2.48,2.48,6.512,0,8.992L102.637,188.063z"/>
</g>
<g>
	<path fill="#1F215E" d="M48.637,188.063c-1.24,1.24-2.791,1.859-4.496,1.859c-1.706,0-3.256-0.619-4.496-1.859
		c-2.481-2.48-2.481-6.512,0-8.992L118.713,100L39.644,20.93c-2.481-2.48-2.481-6.512,0-8.992c2.48-2.48,6.512-2.48,8.993,0
		l83.564,83.566c2.48,2.48,2.48,6.512,0,8.992L48.637,188.063z"/>
</g>
</svg>
