<?xml version="1.0" encoding="utf-8"?>
<!-- Generator: Adobe Illustrator 16.0.0, SVG Export Plug-In . SVG Version: 6.00 Build 0)  -->
<!DOCTYPE svg PUBLIC "-//W3C//DTD SVG 1.1//EN" "http://www.w3.org/Graphics/SVG/1.1/DTD/svg11.dtd">
<svg version="1.1" id="Layer_1" xmlns="http://www.w3.org/2000/svg" xmlns:xlink="http://www.w3.org/1999/xlink" x="0px" y="0px"
	 width="332.25px" height="47.25px" viewBox="0 0 332.25 47.25" enable-background="new 0 0 332.25 47.25" xml:space="preserve">
<g>
	<path fill-rule="evenodd" clip-rule="evenodd" fill="none" d="M2-8.75c109.334,0,218.666,0,328,0c0,21.333,0,42.667,0,64
		c-109.334,0-218.666,0-328,0C2,33.917,2,12.583,2-8.75z M28.946,21.189c1.542-1.63,3.085-3.259,4.853-5.126
		c1.406,0.076,3.007,0.164,4.826,0.264c-0.541,2.278-0.988,4.166-1.655,6.981c2.152-2.938,3.706-5.06,5.325-7.27
		c1.783,0.104,3.375,0.197,5.225,0.306c-0.936,3.714-1.766,7.012-2.73,10.842c3.067,0,5.535,0,8.003,0c2.438,0,4.878,0,7.218,0
		c0.697-5.842-0.967-9.849-5.342-13.672c-9.999-8.737-28.125-10.051-39.793-2.793c-2.027,1.261-3.819,2.898-5.721,4.362
		c0.133,0.386,0.266,0.772,0.396,1.158c6.644,0,13.286,0,19.799,0c-0.129,2.099-0.218,3.565-0.307,5.031
		c-0.25,0.304-0.5,0.606-0.137,0.165C28.811,22.037,28.879,21.613,28.946,21.189z M96.828,20.546
		c0.416-0.14,0.574-0.192,0.731-0.246c0.181,6.731,0.36,13.464,0.546,20.433c2.654,0,5.041,0,7.568,0c0-11.201,0-22.095,0-33.175
		c-3.188,0-6.104,0-9.143,0c-2.318,5.212-4.566,10.268-7.212,16.216c-2.682-6.075-4.945-11.202-7.127-16.144
		c-3.438,0-6.519,0-9.649,0c0,11.215,0,22.104,0,33.021c2.713,0,5.096,0,8.037,0c0-6.852,0-13.34,0-19.829
		c0.289-0.037,0.578-0.075,0.867-0.112c1.672,3.904,3.343,7.809,4.995,11.668c1.962,0,3.567,0,5.369,0
		C93.546,28.286,95.223,24.332,96.828,20.546z M179.811,40.678c2.402,0,4.604,0,7.168,0c0-7.421,0-14.508,0-21.594
		c0.257-0.081,0.514-0.162,0.77-0.242c4.22,7.429,8.439,14.857,12.407,21.844c2.976,0,5.23,0,7.474,0c0-11.244,0-22.145,0-33.107
		c-2.402,0-4.486,0-7.213,0c0,5.938,0,11.604,0,17.27c-0.296,0.036-0.592,0.071-0.887,0.107
		c-3.334-5.878-6.668-11.756-10.009-17.644c-1.813,0-3.302,0-4.79,0c-1.602,0-3.203,0-4.92,0
		C179.811,18.781,179.811,29.571,179.811,40.678z M297.44,41.021c4.124,0,7.914,0.101,11.695-0.038
		c2.147-0.079,4.319-0.388,6.415-0.87c6.907-1.59,11.568-8.172,11.559-16.125c-0.008-7.846-4.365-14.083-11.257-15.774
		c-6.014-1.476-12.111-0.973-18.412-0.671C297.44,18.659,297.44,29.426,297.44,41.021z M165.217,7.564c0,2.047,0.006,3.839,0,5.632
		c-0.019,5.491-0.037,10.982-0.063,16.474c-0.025,5.34-6.145,6.75-9.613,4.382c-2.012-1.373-2.397-3.507-2.41-5.728
		c-0.031-5.658,0.008-11.316-0.037-16.975c-0.01-1.263-0.24-2.524-0.372-3.803c-2.618,0-4.88,0-7.66,0
		c0,6.832-0.035,13.441,0.009,20.05c0.063,9.551,4.613,14.065,14.146,14.016c1.655-0.009,3.335-0.183,4.956-0.516
		c5.113-1.052,8.549-4.242,8.819-9.459c0.41-7.92,0.107-15.876,0.107-24.073C170.498,7.564,168.105,7.564,165.217,7.564z
		 M141.866,40.886c-3.856-11.547-7.519-22.511-11.128-33.317c-3.283,0-6.041,0-8.969,0c-3.67,11.106-7.563,21.915-10.894,33.169
		c3.15,0,5.57,0,8.046,0c0.826-2.237,1.563-4.232,2.32-6.284c3.422,0,6.682,0,9.99,0c0.877,2.317,1.674,4.426,2.434,6.433
		C136.434,40.886,138.737,40.886,141.866,40.886z M242.896,40.623c7.456,0,14.637,0,21.649,0c0-2.315,0-4.212,0-6.621
		c-4.784,0-9.176,0-13.514,0c0-2.813,0-5.091,0-8.021c4.428,0,8.632,0,12.74,0c0-2.577,0-4.484,0-6.822c-4.418,0-8.507,0-12.678,0
		c0-1.851,0-3.248,0-5.199c4.686,0,9.093,0,13.542,0c0-2.467,0-4.37,0-6.402c-7.376,0-14.448,0-21.74,0
		C242.896,18.712,242.896,29.599,242.896,40.623z M4.661,23.538c0.675,2.887,0.886,5.227,1.767,7.278
		c2.063,4.801,5.888,8.042,10.547,10.156c10.432,4.732,20.98,4.725,31.434,0.07c3.079-1.371,6.018-3.138,8.086-6.568
		c-6.725-0.13-12.961,0.123-19.293-0.163c0.498-2.481,0.854-4.257,1.21-6.033c-0.164-0.051-0.327-0.101-0.491-0.15
		c-1.411,2.025-2.822,4.052-4.378,6.286c-1.72-0.076-3.415-0.15-5.337-0.234c0.562-2.352,0.976-4.088,1.39-5.825
		c-0.158-0.08-0.316-0.16-0.475-0.24c-1.499,2.088-2.997,4.176-4.558,6.35c-1.766-0.096-3.375-0.183-5.272-0.285
		c0.927-3.703,1.761-7.028,2.665-10.641C16.328,23.538,11.061,23.538,4.661,23.538z M215.891,7.571c0,11.143,0,22.023,0,33.15
		c2.669,0,5.055,0,7.932,0c0-4.698,0-9.112,0-14.069c4.385,0,8.291,0,12.169,0c0-2.443,0-4.322,0-6.612c-4.144,0-7.91,0-11.874,0
		c0-2.146,0-3.853,0-6.101c4.711,0,9.115,0,13.527,0c0-2.459,0-4.366,0-6.368C230.266,7.571,223.195,7.571,215.891,7.571z
		 M271.26,41.022c4.061,0,7.543,0.021,11.023-0.006c3.424-0.028,6.848-0.106,10.103-0.16c0-2.529,0-4.429,0-6.689
		c-4.498,0-8.612,0-13.323,0c0-9.069,0-17.792,0-26.478c-3.002,0-5.381,0-7.803,0C271.26,18.849,271.26,29.628,271.26,41.022z"/>
	<path fill-rule="evenodd" clip-rule="evenodd" d="M96.828,20.546c-1.605,3.786-3.282,7.74-5.017,11.831c-1.802,0-3.407,0-5.369,0
		c-1.652-3.859-3.323-7.764-4.995-11.668c-0.289,0.037-0.578,0.075-0.867,0.112c0,6.489,0,12.978,0,19.829c-2.941,0-5.324,0-8.037,0
		c0-10.917,0-21.806,0-33.021c3.131,0,6.211,0,9.649,0c2.182,4.941,4.445,10.068,7.127,16.144
		c2.646-5.948,4.894-11.004,7.212-16.216c3.039,0,5.955,0,9.143,0c0,11.08,0,21.974,0,33.175c-2.527,0-4.914,0-7.568,0
		C97.92,33.764,97.74,27.031,97.56,20.3C97.402,20.354,97.244,20.406,96.828,20.546z"/>
	<path fill-rule="evenodd" clip-rule="evenodd" d="M179.811,40.678c0-11.106,0-21.896,0-33.366c1.717,0,3.318,0,4.92,0
		c1.488,0,2.978,0,4.79,0c3.341,5.888,6.675,11.766,10.009,17.644c0.295-0.036,0.591-0.071,0.887-0.107c0-5.666,0-11.331,0-17.27
		c2.727,0,4.811,0,7.213,0c0,10.963,0,21.863,0,33.107c-2.243,0-4.498,0-7.474,0c-3.968-6.986-8.188-14.415-12.407-21.844
		c-0.256,0.08-0.513,0.161-0.77,0.242c0,7.086,0,14.173,0,21.594C184.414,40.678,182.213,40.678,179.811,40.678z"/>
	<path fill-rule="evenodd" clip-rule="evenodd" d="M297.44,41.021c0-11.595,0-22.361,0-33.479
		c6.301-0.302,12.398-0.805,18.412,0.671c6.892,1.691,11.249,7.929,11.257,15.774c0.01,7.953-4.651,14.535-11.559,16.125
		c-2.096,0.482-4.268,0.791-6.415,0.87C305.354,41.121,301.564,41.021,297.44,41.021z M305.67,14.403c0,6.72,0,13.106,0,19.563
		c4.424,0.762,8.236,0.47,10.918-3.315c2.216-3.128,2.307-9.665,0.141-12.817C314.115,14.031,310.342,13.529,305.67,14.403z"/>
	<path fill-rule="evenodd" clip-rule="evenodd" d="M165.217,7.564c2.889,0,5.281,0,7.882,0c0,8.197,0.303,16.153-0.107,24.073
		c-0.271,5.217-3.706,8.407-8.819,9.459c-1.621,0.333-3.301,0.507-4.956,0.516c-9.532,0.05-14.083-4.465-14.146-14.016
		c-0.044-6.608-0.009-13.218-0.009-20.05c2.78,0,5.042,0,7.66,0c0.132,1.278,0.362,2.54,0.372,3.803
		c0.045,5.658,0.006,11.316,0.037,16.975c0.013,2.221,0.398,4.354,2.41,5.728c3.469,2.368,9.588,0.958,9.613-4.382
		c0.025-5.491,0.044-10.982,0.063-16.474C165.223,11.403,165.217,9.611,165.217,7.564z"/>
	<path fill-rule="evenodd" clip-rule="evenodd" d="M141.866,40.886c-3.129,0-5.433,0-8.2,0c-0.76-2.007-1.557-4.115-2.434-6.433
		c-3.309,0-6.568,0-9.99,0c-0.758,2.052-1.494,4.047-2.32,6.284c-2.476,0-4.896,0-8.046,0c3.331-11.254,7.224-22.063,10.894-33.169
		c2.928,0,5.686,0,8.969,0C134.348,18.375,138.01,29.339,141.866,40.886z M122.946,28.033c2.465,0,4.2,0,6.487,0
		c-0.96-3.344-1.809-6.296-2.656-9.248c-0.307,0.017-0.613,0.033-0.921,0.05C124.936,21.744,124.016,24.653,122.946,28.033z"/>
	<path fill-rule="evenodd" clip-rule="evenodd" d="M242.896,40.623c0-11.024,0-21.911,0-33.065c7.292,0,14.364,0,21.74,0
		c0,2.032,0,3.936,0,6.402c-4.449,0-8.856,0-13.542,0c0,1.951,0,3.349,0,5.199c4.171,0,8.26,0,12.678,0c0,2.338,0,4.245,0,6.822
		c-4.108,0-8.313,0-12.74,0c0,2.93,0,5.207,0,8.021c4.338,0,8.729,0,13.514,0c0,2.409,0,4.306,0,6.621
		C257.532,40.623,250.352,40.623,242.896,40.623z"/>
	<path fill-rule="evenodd" clip-rule="evenodd" d="M4.661,23.538c6.399,0,11.667,0,17.294,0c-0.904,3.612-1.738,6.938-2.665,10.641
		c1.897,0.103,3.507,0.189,5.272,0.285c1.561-2.174,3.059-4.262,4.558-6.35c0.158,0.08,0.316,0.16,0.475,0.24
		c-0.414,1.737-0.828,3.474-1.39,5.825c1.922,0.084,3.617,0.158,5.337,0.234c1.556-2.234,2.967-4.261,4.378-6.286
		c0.164,0.05,0.327,0.1,0.491,0.15c-0.356,1.776-0.712,3.552-1.21,6.033c6.332,0.286,12.568,0.033,19.293,0.163
		c-2.068,3.431-5.007,5.197-8.086,6.568c-10.453,4.654-21.002,4.662-31.434-0.07c-4.659-2.114-8.484-5.355-10.547-10.156
		C5.547,28.765,5.336,26.425,4.661,23.538z"/>
	<path fill-rule="evenodd" clip-rule="evenodd" d="M29.043,21.273c0.089-1.466,0.178-2.933,0.307-5.031c-6.513,0-13.155,0-19.799,0
		c-0.131-0.386-0.264-0.772-0.396-1.158c1.901-1.464,3.693-3.102,5.721-4.362c11.668-7.258,29.794-5.944,39.793,2.793
		c4.375,3.823,6.039,7.83,5.342,13.672c-2.34,0-4.779,0-7.218,0c-2.468,0-4.936,0-8.003,0c0.965-3.83,1.795-7.128,2.73-10.842
		c-1.85-0.108-3.441-0.201-5.225-0.306c-1.619,2.21-3.173,4.331-5.325,7.27c0.667-2.815,1.114-4.703,1.655-6.981
		c-1.819-0.1-3.42-0.188-4.826-0.264c-1.768,1.867-3.311,3.496-4.853,5.126L29.043,21.273z"/>
	<path fill-rule="evenodd" clip-rule="evenodd" d="M215.891,7.571c7.305,0,14.375,0,21.754,0c0,2.002,0,3.909,0,6.368
		c-4.412,0-8.816,0-13.527,0c0,2.248,0,3.955,0,6.101c3.964,0,7.73,0,11.874,0c0,2.29,0,4.169,0,6.612c-3.878,0-7.784,0-12.169,0
		c0,4.957,0,9.371,0,14.069c-2.877,0-5.263,0-7.932,0C215.891,29.595,215.891,18.714,215.891,7.571z"/>
	<path fill-rule="evenodd" clip-rule="evenodd" d="M271.26,41.022c0-11.395,0-22.174,0-33.333c2.422,0,4.801,0,7.803,0
		c0,8.686,0,17.408,0,26.478c4.711,0,8.825,0,13.323,0c0,2.261,0,4.16,0,6.689c-3.255,0.054-6.679,0.132-10.103,0.16
		C278.803,41.044,275.32,41.022,271.26,41.022z"/>
	<path fill-rule="evenodd" clip-rule="evenodd" d="M28.946,21.189c-0.067,0.424-0.136,0.848-0.04,0.249
		c-0.363,0.441-0.113,0.139,0.137-0.165L28.946,21.189z"/>
	<path fill-rule="evenodd" clip-rule="evenodd" fill="none" d="M305.67,14.403c4.672-0.874,8.445-0.372,11.059,3.431
		c2.166,3.152,2.075,9.689-0.141,12.817c-2.682,3.785-6.494,4.077-10.918,3.315C305.67,27.51,305.67,21.123,305.67,14.403z"/>
	<path fill-rule="evenodd" clip-rule="evenodd" fill="none" d="M122.946,28.033c1.069-3.38,1.989-6.289,2.91-9.198
		c0.308-0.017,0.614-0.033,0.921-0.05c0.848,2.952,1.696,5.904,2.656,9.248C127.146,28.033,125.411,28.033,122.946,28.033z"/>
</g>
</svg>
