<?xml version="1.0" encoding="utf-8"?>
<!-- Generator: Adobe Illustrator 16.0.0, SVG Export Plug-In . SVG Version: 6.00 Build 0)  -->
<!DOCTYPE svg PUBLIC "-//W3C//DTD SVG 1.1//EN" "http://www.w3.org/Graphics/SVG/1.1/DTD/svg11.dtd">
<svg version="1.1" id="Capa_1" xmlns="http://www.w3.org/2000/svg" xmlns:xlink="http://www.w3.org/1999/xlink" x="0px" y="0px"
	 width="200px" height="200px" viewBox="0 0 200 200" enable-background="new 0 0 200 200" xml:space="preserve">
<g>
	<g>
		<path fill="#9D9D9D" d="M137.757,130.557c12.786-13.841,20.763-32.375,20.763-52.785C158.52,34.956,123.681,0,80.748,0
			S2.977,34.956,2.977,77.771s34.839,77.771,77.771,77.771c17.478,0,33.549-5.748,46.568-15.484l57.83,57.83
			c1.408,1.408,3.168,2.111,4.927,2.111c1.76,0,3.636-0.703,4.927-2.111c2.698-2.698,2.698-7.155,0-9.971L137.757,130.557z
			 M17.053,77.771c0-35.074,28.505-63.695,63.695-63.695c35.073,0,63.695,28.504,63.695,63.695c0,35.19-28.505,63.695-63.695,63.695
			S17.053,112.845,17.053,77.771z"/>
	</g>
</g>
</svg>
